# xmcd
#
# Track frame offsets: 
#        150
#        30735
#        48602
#        70312
#        88010
#        107555
#        129822
#        153057
#        171255
#        193797
#        216630
#        232002
#        260817
#        279805
#
# Disc length: 4051 seconds
#
# Revision: 22
# Processed by: cddbd v1.5.2PL0 Copyright (c) Steve Scherf et al.
# Submitted via: ExactAudioCopy v1.1
#
DISCID=c90fd10e
DTITLE=今井美樹 - Ivory
DYEAR=1989
DGENRE=JPop
TTITLE0=夏をかさねて
TTITLE1=とっておきの朝を
TTITLE2=ポールポジション
TTITLE3=彼女とTIP ON DUO
TTITLE4=オレンジの河
TTITLE5=キスより 吐息より
TTITLE6=野性の風 (Album Version)
TTITLE7=Boogie-Woogie Lonesome High-Heel (Single Version)
TTITLE8=ふたりでスプラッシュ
TTITLE9=空に近い週末
TTITLE10=elfin
TTITLE11=地上に降りるまでの夜
TTITLE12=ひとりでX'mas
TTITLE13=瞳がほほえむから (Album Version)
EXTD=YEAR: 1989
EXTT0=
EXTT1=
EXTT2=
EXTT3=
EXTT4=
EXTT5=
EXTT6=
EXTT7=
EXTT8=
EXTT9=
EXTT10=
EXTT11=
EXTT12=
EXTT13=
PLAYORDER=
